<svg width="79" height="79" viewBox="0 0 79 79" fill="none" xmlns="http://www.w3.org/2000/svg">
<path d="M78.7344 39.5C78.7344 61.1738 61.1738 78.7344 39.5 78.7344C17.8262 78.7344 0.265625 61.1738 0.265625 39.5C0.265625 17.8262 17.8262 0.265625 39.5 0.265625C61.1738 0.265625 78.7344 17.8262 78.7344 39.5ZM32.5391 21.1484V39.5H21.3225C19.6297 39.5 18.7754 41.5566 19.9777 42.7432L38.1553 60.8258C38.8988 61.5693 40.0854 61.5693 40.8289 60.8258L59.0064 42.7432C60.2088 41.5408 59.3545 39.5 57.6617 39.5H46.4609V21.1484C46.4609 20.1043 45.6066 19.25 44.5625 19.25H34.4375C33.3934 19.25 32.5391 20.1043 32.5391 21.1484Z" fill="#F18A01"/>
</svg>
