<?xml version="1.0" encoding="utf-8"?>
<!-- Generator: Adobe Illustrator 27.0.1, SVG Export Plug-In . SVG Version: 6.00 Build 0)  -->
<svg version="1.1" id="Camada_1" xmlns="http://www.w3.org/2000/svg" xmlns:xlink="http://www.w3.org/1999/xlink" x="0px" y="0px"
	 viewBox="0 0 702.3 535" style="enable-background:new 0 0 702.3 535;" xml:space="preserve">
<style type="text/css">
	.st0{fill-rule:evenodd;clip-rule:evenodd;fill:#F18A01;}
</style>
<g id="SVGRepo_bgCarrier">
</g>
<g id="SVGRepo_tracerCarrier">
</g>
<g id="SVGRepo_iconCarrier">
	<g id="style_x3D_stroke">
		<g id="eye-open">
			<path id="vector__x28_Stroke_x29_" class="st0" d="M351.2,192.7c-41.5,0-75,33.5-75,75s33.5,75,75,75s75-33.5,75-75
				S392.7,192.7,351.2,192.7z M226.2,267.7c0-69.1,55.9-125,125-125c69.1,0,125,55.9,125,125c0,69.1-55.9,125-125,125
				C282,392.7,226.2,336.8,226.2,267.7z"/>
			<path id="vector__x28_Stroke_x29__x5F_2" class="st0" d="M27.3,176.8C107.6,65.8,224.4,0,351.2,0C478,0,594.7,65.8,675.1,176.8
				c18.7,25.8,27.2,58.9,27.2,90.7c0,31.8-8.5,64.9-27.3,90.7C594.7,469.2,478,535,351.2,535c-126.8,0-243.6-65.8-323.9-176.8
				C8.5,332.4,0,299.3,0,267.5C0,235.7,8.5,202.6,27.3,176.8z M351.2,50c-108.5,0-211.1,56.1-283.4,156.1l0,0
				C56.5,221.7,50,243.9,50,267.5c0,23.6,6.5,45.8,17.7,61.4l0,0C140.1,428.9,242.6,485,351.2,485c108.5,0,211.1-56.1,283.4-156.1
				l0,0c11.3-15.5,17.7-37.7,17.7-61.4c0-23.6-6.5-45.8-17.7-61.4l0,0C562.3,106.1,459.7,50,351.2,50z"/>
		</g>
	</g>
</g>
</svg>
