<?xml version="1.0" encoding="utf-8"?>
<!-- Generator: Adobe Illustrator 27.0.1, SVG Export Plug-In . SVG Version: 6.00 Build 0)  -->
<svg version="1.1" id="Layer_1" xmlns="http://www.w3.org/2000/svg" xmlns:xlink="http://www.w3.org/1999/xlink" x="0px" y="0px"
	 viewBox="0 0 800 800" style="enable-background:new 0 0 800 800;" xml:space="preserve">
<style type="text/css">
	.st0{fill-rule:evenodd;clip-rule:evenodd;fill:#F18A01;}
	.st1{display:none;fill:#F18A01;stroke:#F2F2F2;stroke-width:30;stroke-miterlimit:10;}
	.st2{fill:none;stroke:#F2870D;stroke-width:40;stroke-miterlimit:10;}
</style>
<g id="SVGRepo_bgCarrier">
</g>
<g id="SVGRepo_tracerCarrier">
</g>
<g id="SVGRepo_iconCarrier">
	<g id="style_x3D_stroke">
		<g id="eye-open">
			<path id="vector__x28_Stroke_x29_" class="st0" d="M400,325.2c-41.5,0-75,33.5-75,75s33.5,75,75,75s75-33.5,75-75
				S441.5,325.2,400,325.2z M275,400.2c0-69.1,55.9-125,125-125c69.1,0,125,55.9,125,125c0,69.1-55.9,125-125,125
				C330.9,525.2,275,469.3,275,400.2z"/>
			<path id="vector__x28_Stroke_x29__x5F_2" class="st0" d="M76.1,309.3c80.3-111,197.1-176.8,323.9-176.8
				c126.8,0,243.6,65.8,323.9,176.8c18.7,25.8,27.2,58.9,27.2,90.7c0,31.8-8.5,64.9-27.3,90.7c-80.3,111-197.1,176.8-323.9,176.8
				c-126.8,0-243.6-65.8-323.9-176.8c-18.7-25.8-27.2-58.9-27.2-90.7C48.8,368.2,57.4,335.1,76.1,309.3z M400,182.5
				c-108.5,0-211.1,56.1-283.4,156.1l0,0c-11.3,15.5-17.7,37.7-17.7,61.4c0,23.6,6.5,45.8,17.7,61.4l0,0
				c72.3,100,174.9,156.1,283.4,156.1c108.5,0,211.1-56.1,283.4-156.1l0,0c11.3-15.5,17.7-37.7,17.7-61.4c0-23.6-6.5-45.8-17.7-61.4
				l0,0C611.1,238.6,508.5,182.5,400,182.5z"/>
		</g>
	</g>
	<line class="st1" x1="86.1" y1="660" x2="713.9" y2="140"/>
</g>
<line class="st2" x1="729.2" y1="99.4" x2="70.8" y2="700.6"/>
</svg>
