<svg width="63" height="64" viewBox="0 0 63 64" fill="none" xmlns="http://www.w3.org/2000/svg">
<path d="M31.5 0.515625C14.1074 0.515625 0.015625 14.6074 0.015625 32C0.015625 49.3926 14.1074 63.4844 31.5 63.4844C48.8926 63.4844 62.9844 49.3926 62.9844 32C62.9844 14.6074 48.8926 0.515625 31.5 0.515625ZM31.5 12.7031C37.6699 12.7031 42.6719 17.7051 42.6719 23.875C42.6719 30.0449 37.6699 35.0469 31.5 35.0469C25.3301 35.0469 20.3281 30.0449 20.3281 23.875C20.3281 17.7051 25.3301 12.7031 31.5 12.7031ZM31.5 56.375C24.0479 56.375 17.3701 52.998 12.9014 47.7168C15.2881 43.2227 19.96 40.125 25.4062 40.125C25.7109 40.125 26.0156 40.1758 26.3076 40.2646C27.958 40.7979 29.6846 41.1406 31.5 41.1406C33.3154 41.1406 35.0547 40.7979 36.6924 40.2646C36.9844 40.1758 37.2891 40.125 37.5938 40.125C43.04 40.125 47.7119 43.2227 50.0986 47.7168C45.6299 52.998 38.9521 56.375 31.5 56.375Z" fill="#F18A01"/>
</svg>
